<svg xmlns="http://www.w3.org/2000/svg" viewBox="0 0 512 512">
  <!-- MAIN EMBLEM: Solid deep forest green circle -->
  <circle cx="256" cy="256" r="230" fill="#123C2E" />

  <!-- MONOGRAM: "SS" using raw vector paths for absolute cross-device precision -->
  <!-- First S (Upper-Left) -->
  <g transform="translate(94, 338) scale(1.3, -1.3)">
    <path d="M 21.6 9.8 L 21.6 58.2 L 39.0 58.2 Q 42.9 35.3 57.7 23.9 Q 72.4 12.6 98.6 12.6 Q 119.8 12.6 130.9 20.6 Q 141.9 28.7 141.9 44.3 Q 141.9 56.6 134.4 63.4 Q 126.9 70.3 103.4 76.2 L 72.8 83.7 Q 42.8 91.3 30.6 104.9 Q 18.5 118.5 18.5 143.7 Q 18.5 174.0 38.6 190.9 Q 58.8 207.8 95.2 207.8 Q 113.0 207.8 132.4 204.8 Q 151.8 201.8 172.5 195.8 L 172.5 150.7 L 155.2 150.7 Q 151.2 171.7 137.8 181.5 Q 124.4 191.3 99.7 191.3 Q 79.4 191.3 69.1 184.2 Q 58.8 177.2 58.8 163.2 Q 58.8 150.5 65.9 143.9 Q 73.0 137.3 100.8 130.2 L 131.4 122.6 Q 159.8 115.5 172.6 100.5 Q 185.4 85.4 185.4 59.1 Q 185.4 28.2 164.1 12.1 Q 142.8 -4.0 101.3 -4.0 Q 81.3 -4.0 61.6 -0.5 Q 42.0 2.9 21.6 9.8 Z" fill="#D4A94F" />
  </g>

  <!-- Second S (Lower-Right) with interlocking stroke -->
  <g transform="translate(170, 398) scale(1.3, -1.3)">
    <!-- Cutout Stroke for Interlocking -->
    <path d="M 21.6 9.8 L 21.6 58.2 L 39.0 58.2 Q 42.9 35.3 57.7 23.9 Q 72.4 12.6 98.6 12.6 Q 119.8 12.6 130.9 20.6 Q 141.9 28.7 141.9 44.3 Q 141.9 56.6 134.4 63.4 Q 126.9 70.3 103.4 76.2 L 72.8 83.7 Q 42.8 91.3 30.6 104.9 Q 18.5 118.5 18.5 143.7 Q 18.5 174.0 38.6 190.9 Q 58.8 207.8 95.2 207.8 Q 113.0 207.8 132.4 204.8 Q 151.8 201.8 172.5 195.8 L 172.5 150.7 L 155.2 150.7 Q 151.2 171.7 137.8 181.5 Q 124.4 191.3 99.7 191.3 Q 79.4 191.3 69.1 184.2 Q 58.8 177.2 58.8 163.2 Q 58.8 150.5 65.9 143.9 Q 73.0 137.3 100.8 130.2 L 131.4 122.6 Q 159.8 115.5 172.6 100.5 Q 185.4 85.4 185.4 59.1 Q 185.4 28.2 164.1 12.1 Q 142.8 -4.0 101.3 -4.0 Q 81.3 -4.0 61.6 -0.5 Q 42.0 2.9 21.6 9.8 Z" stroke="#123C2E" stroke-width="12" stroke-linejoin="round" fill="none" />
    
    <!-- Solid Fill -->
    <path d="M 21.6 9.8 L 21.6 58.2 L 39.0 58.2 Q 42.9 35.3 57.7 23.9 Q 72.4 12.6 98.6 12.6 Q 119.8 12.6 130.9 20.6 Q 141.9 28.7 141.9 44.3 Q 141.9 56.6 134.4 63.4 Q 126.9 70.3 103.4 76.2 L 72.8 83.7 Q 42.8 91.3 30.6 104.9 Q 18.5 118.5 18.5 143.7 Q 18.5 174.0 38.6 190.9 Q 58.8 207.8 95.2 207.8 Q 113.0 207.8 132.4 204.8 Q 151.8 201.8 172.5 195.8 L 172.5 150.7 L 155.2 150.7 Q 151.2 171.7 137.8 181.5 Q 124.4 191.3 99.7 191.3 Q 79.4 191.3 69.1 184.2 Q 58.8 177.2 58.8 163.2 Q 58.8 150.5 65.9 143.9 Q 73.0 137.3 100.8 130.2 L 131.4 122.6 Q 159.8 115.5 172.6 100.5 Q 185.4 85.4 185.4 59.1 Q 185.4 28.2 164.1 12.1 Q 142.8 -4.0 101.3 -4.0 Q 81.3 -4.0 61.6 -0.5 Q 42.0 2.9 21.6 9.8 Z" fill="#D4A94F" />
  </g>

  <!-- LEAF: Simple pointed oval pointing upward-right with center vein -->
  <!-- Moved to the upper 'S' letter with translate(-76, -60) -->
  <g transform="translate(-76, -60)">
    <path d="M 320 210 Q 330 140 400 125 Q 385 195 320 210 Z" stroke="#123C2E" stroke-width="12" stroke-linejoin="round" fill="none" />
    <path d="M 320 210 Q 330 140 400 125 Q 385 195 320 210 Z" fill="#D4A94F" />
    <path d="M 330 200 Q 355 170 385 140" stroke="#123C2E" stroke-width="6" stroke-linecap="round" fill="none" />
  </g>
</svg>